<?xml version="1.0" encoding="utf-8"?>
<!-- Generator: Adobe Illustrator 25.4.1, SVG Export Plug-In . SVG Version: 6.00 Build 0)  -->
<svg version="1.1" id="Capa_1" xmlns="http://www.w3.org/2000/svg" xmlns:xlink="http://www.w3.org/1999/xlink" x="0px" y="0px"
	 viewBox="0 0 729.8 729.8" style="enable-background:new 0 0 729.8 729.8;" xml:space="preserve">
<style type="text/css">
	.st0{fill:#FFFFFF;}
</style>
<g>
	<g>
		<g>
			<path class="st0" d="M589.2,222c0-6.3,5.1-11.4,11.4-11.4S612,215.8,612,222v437.5c0,19.3-7.9,36.9-20.7,49.7
				c-12.7,12.7-30.3,20.7-49.7,20.7H188.2c-19.3,0-36.9-7.9-49.7-20.7c-12.7-12.7-20.7-30.3-20.7-49.7V222c0-6.3,5.1-11.4,11.4-11.4
				c6.3,0,11.4,5.1,11.4,11.4v437.5c0,13,5.4,24.9,14,33.5c8.6,8.6,20.5,14,33.5,14h353.5c13,0,24.9-5.4,33.5-14
				c8.6-8.6,14-20.5,14-33.5L589.2,222L589.2,222z"/>
			<path class="st0" d="M279.9,630.1c0,6.3-5.1,11.4-11.4,11.4s-11.4-5.1-11.4-11.4V225c0-6.3,5.1-11.4,11.4-11.4
				s11.4,5.1,11.4,11.4V630.1z"/>
			<path class="st0" d="M376.3,630.1c0,6.3-5.1,11.4-11.4,11.4s-11.4-5.1-11.4-11.4V225c0-6.3,5.1-11.4,11.4-11.4
				s11.4,5.1,11.4,11.4V630.1z"/>
			<path class="st0" d="M472.8,630.1c0,6.3-5.1,11.4-11.4,11.4c-6.3,0-11.4-5.1-11.4-11.4V225c0-6.3,5.1-11.4,11.4-11.4
				c6.3,0,11.4,5.1,11.4,11.4V630.1L472.8,630.1z"/>
			<path class="st0" d="M273.2,70.3c0,6.3-5.1,11.4-11.4,11.4c-6.3,0-11.4-5.1-11.4-11.4c0-19.4,7.9-36.9,20.6-49.7
				C283.8,7.9,301.4,0,320.7,0h88.4c19.3,0,36.9,7.9,49.7,20.7c12.7,12.7,20.7,30.4,20.7,49.7c0,6.3-5.1,11.4-11.4,11.4
				s-11.4-5.1-11.4-11.4c0-13-5.4-24.9-14-33.5c-8.6-8.6-20.5-14-33.5-14h-88.4c-13,0-24.9,5.4-33.5,14
				C278.6,45.4,273.2,57.3,273.2,70.3z"/>
			<path class="st0" d="M99.8,103.1h530.3c11.2,0,21.4,4.6,28.8,12l0,0c7.4,7.4,12,17.6,12,28.8v29.5c0,6.3-5.1,11.4-11.4,11.4h-0.3
				H70.3c-6.3,0-11.4-5.1-11.4-11.4v-0.3V144c0-11.2,4.6-21.4,12-28.8l0,0C78.4,107.7,88.6,103.1,99.8,103.1L99.8,103.1z
				 M630.1,125.9H99.8c-5,0-9.5,2-12.7,5.3l0,0c-3.3,3.2-5.3,7.7-5.3,12.7V162h566.4V144c0-5-2-9.5-5.3-12.7l0,0
				C639.5,127.9,635,125.9,630.1,125.9z"/>
		</g>
	</g>
</g>
</svg>
